<?xml version="1.0" encoding="utf-8"?>
<!-- Generator: Adobe Illustrator 27.5.0, SVG Export Plug-In . SVG Version: 6.00 Build 0)  -->
<svg version="1.1" id="Layer_1" xmlns="http://www.w3.org/2000/svg" xmlns:xlink="http://www.w3.org/1999/xlink" x="0px" y="0px"
	 viewBox="0 0 5657 4000" style="enable-background:new 0 0 5657 4000;" xml:space="preserve">
<g>
	<defs>
		<rect id="SVGID_1_" width="5657" height="4000"/>
	</defs>
	<clipPath id="SVGID_00000179612690995405237970000006197291051912833957_">
		<use xlink:href="#SVGID_1_"  style="overflow:visible;"/>
	</clipPath>
	
		<linearGradient id="SVGID_00000116918981348906100500000008182477570530019739_" gradientUnits="userSpaceOnUse" x1="761.7853" y1="4758.2563" x2="5404.356" y2="-1437.7607">
		<stop  offset="0" style="stop-color:#000000"/>
		<stop  offset="1" style="stop-color:#050301"/>
	</linearGradient>
	
		<rect style="clip-path:url(#SVGID_00000179612690995405237970000006197291051912833957_);fill:url(#SVGID_00000116918981348906100500000008182477570530019739_);" width="5657" height="4000"/>
</g>
<path style="fill-rule:evenodd;clip-rule:evenodd;fill:#FFFFFF;" d="M3735.872,2749.451h-51.649v1.974l88.506,133.419v95.25h43.425
	v-95.25l91.801-133.419v-1.974h-52.313l-61.202,95.25L3735.872,2749.451z M3536.781,2892.467l-112.854-143.016h-35.205v230.642
	h43.432v-155.518l121.078,155.518h26.979v-230.642h-43.43V2892.467z M3204.109,2896.192h-85.545l42.775-98.266L3204.109,2896.192z
	 M3240.955,2980.093h47.382l-103.313-230.642h-47.377l-103.313,230.642h47.049l19.739-43.431h120.423L3240.955,2980.093z
	 M2866.834,2749.451c-36.192-0.332-72.384,0-108.579,0v230.642h43.432v-67.779h65.146
	C2979.681,2912.314,2979.356,2749.451,2866.834,2749.451z M2801.688,2790.905h65.146c55.27,0,55.601,81.595,0,81.595h-65.146
	V2790.905z M2596.669,2980.093h43.432v-229.987h-49.683l-72.052,98.87l-72.054-98.87h-50.008v229.987h43.432v-167.198
	l73.366,100.189h8.556l75.01-99.857V2980.093z M2168.59,2784.655c54.289,0,76.004,43.433,75.34,82.259
	c-0.655,37.837-21.051,78.63-75.34,78.63s-74.685-40.468-75.672-78.307C2091.929,2828.413,2114.301,2784.655,2168.59,2784.655z
	 M2168.59,2745.173c-79.624,0-118.447,60.867-118.447,121.408s37.511,118.775,118.447,118.775s117.46-59.552,118.115-119.107
	C2287.362,2806.04,2247.882,2745.173,2168.59,2745.173z M1929.03,2921.195c-15.134,15.142-37.836,23.362-57.909,23.362
	c-56.92,0-78.96-39.806-79.292-77.975c-0.33-38.494,23.691-79.951,79.292-79.951c20.073,0,40.469,6.908,55.601,21.715l28.955-27.966
	c-23.691-23.366-53.3-35.206-84.556-35.206c-83.242,0-122.392,61.199-122.067,121.408c0.332,59.877,36.524,118.775,122.067,118.775
	c33.229,0,63.828-10.858,87.519-34.217L1929.03,2921.195z"/>
<path style="fill-rule:evenodd;clip-rule:evenodd;fill:#FFFFFF;" d="M3500.495,3131.794v-63.671h47.129v10.76h-34.237v14.139h31.838
	v10.76h-31.838v17.253h35.484v10.76H3500.495z M3392.223,3131.794v-63.671h12.483l26.202,42.671v-42.671h11.912v63.671h-12.88
	l-25.798-41.855v41.855H3392.223z M3323.019,3131.794v-63.671h12.894v63.671H3323.019z M3225.452,3131.794v-63.14h12.892v52.38
	h31.924v10.76H3225.452z M3141.48,3108.407v-10.757h27.662v25.401c-2.685,2.626-6.583,4.92-11.699,6.922
	c-5.098,1.988-10.268,2.975-15.511,2.975c-6.655,0-12.457-1.391-17.4-4.188c-4.939-2.804-8.657-6.821-11.15-12.025
	c-2.486-5.198-3.732-10.879-3.732-16.996c0-6.644,1.391-12.541,4.162-17.712c2.79-5.159,6.847-9.13,12.198-11.887
	c4.09-2.121,9.16-3.176,15.24-3.176c7.895,0,14.077,1.665,18.525,4.986c4.429,3.335,7.294,7.916,8.566,13.781l-12.808,2.399
	c-0.888-3.129-2.577-5.601-5.051-7.423c-2.464-1.81-5.547-2.713-9.253-2.713c-5.601,0-10.062,1.777-13.364,5.351
	c-3.307,3.573-4.964,8.863-4.964,15.876c0,7.57,1.672,13.243,5.025,17.029c3.36,3.779,7.75,5.673,13.191,5.673
	c2.677,0,5.376-0.536,8.072-1.583c2.712-1.055,5.025-2.348,6.969-3.858v-8.075H3141.48z M3037.389,3106.538l-8.849-23.565
	l-8.596,23.565H3037.389z M3060.956,3131.794h-13.888l-5.495-14.496h-25.541l-5.289,14.496h-13.635l24.72-63.671h13.621
	L3060.956,3131.794z M2926.139,3131.794v-52.911h-18.85v-10.76h50.51v10.76h-18.766v52.911H2926.139z M2783.749,3131.794v-63.671
	h47.131v10.76h-34.237v14.139h31.838v10.76h-31.838v17.253h35.484v10.76H2783.749z M2665.442,3131.794v-63.671h19.316l11.407,43.426
	l11.283-43.426h19.355v63.671h-11.919l-0.047-50.126l-12.548,50.126h-12.387l-12.497-50.126l-0.047,50.126H2665.442z
	 M2562.983,3099.916c0,7.219,1.67,12.689,5.004,16.421c3.335,3.718,7.577,5.587,12.707,5.587c5.138,0,9.347-1.854,12.653-5.54
	c3.288-3.706,4.932-9.249,4.932-16.646c0-7.305-1.597-12.761-4.813-16.346c-3.201-3.608-7.457-5.397-12.773-5.397
	c-5.311,0-9.592,1.824-12.84,5.456C2564.613,3087.096,2562.983,3092.577,2562.983,3099.916z M2549.731,3100.348
	c0-6.497,0.975-11.952,2.916-16.367c1.438-3.241,3.428-6.164,5.933-8.744c2.5-2.579,5.245-4.488,8.227-5.748
	c3.97-1.677,8.552-2.526,13.736-2.526c9.398,0,16.895,2.923,22.543,8.751c5.629,5.839,8.447,13.947,8.447,24.334
	c0,10.301-2.799,18.362-8.386,24.168c-5.589,5.828-13.072,8.73-22.426,8.73c-9.473,0-17.015-2.89-22.604-8.683
	C2552.528,3118.483,2549.731,3110.509,2549.731,3100.348z M2445.654,3111.166l12.536-1.246c0.755,4.195,2.266,7.259,4.567,9.232
	c2.294,1.969,5.395,2.951,9.293,2.951c4.115,0,7.233-0.875,9.319-2.626c2.088-1.749,3.143-3.791,3.143-6.139
	c0-1.511-0.444-2.783-1.319-3.849c-0.875-1.055-2.42-1.969-4.607-2.745c-1.499-0.531-4.913-1.452-10.242-2.785
	c-6.866-1.717-11.678-3.823-14.449-6.331c-3.898-3.505-5.841-7.794-5.841-12.845c0-3.248,0.917-6.298,2.738-9.127
	c1.843-2.832,4.48-4.986,7.935-6.464c3.447-1.485,7.604-2.229,12.49-2.229c7.96,0,13.96,1.77,17.976,5.311
	c4.039,3.541,6.138,8.253,6.344,14.164l-12.892,0.444c-0.552-3.288-1.716-5.64-3.515-7.079c-1.789-1.438-4.488-2.168-8.072-2.168
	c-3.707,0-6.609,0.776-8.704,2.313c-1.347,0.996-2.03,2.315-2.03,3.971c0,1.513,0.638,2.804,1.911,3.873
	c1.616,1.377,5.547,2.797,11.786,4.282c6.237,1.464,10.85,3.01,13.827,4.581c2.996,1.583,5.336,3.732,7.027,6.475
	c1.688,2.745,2.53,6.117,2.53,10.135c0,3.646-1.005,7.074-3.035,10.254c-2.034,3.19-4.892,5.563-8.596,7.1
	c-3.707,1.56-8.334,2.327-13.862,2.327c-8.047,0-14.225-1.85-18.539-5.568C2449.061,3123.675,2446.496,3118.266,2445.654,3111.166z
	 M2345.662,3131.794v-63.671h47.129v10.76h-34.237v14.139h31.838v10.76h-31.838v17.253h35.483v10.76H2345.662z M2226.417,3131.794
	l-14.966-63.671h13.25l9.473,43.737l11.62-43.737h15.326l11.11,44.481l9.698-44.481h12.939l-15.345,63.671h-13.769l-12.548-47.6
	l-12.646,47.6H2226.417z M2148.101,3106.538l-8.849-23.565l-8.598,23.565H2148.101z M2171.665,3131.794h-13.886l-5.495-14.496
	h-25.541l-5.29,14.496h-13.635l24.718-63.671h13.621L2171.665,3131.794z"/>
<g>
	<defs>
		<polygon id="SVGID_00000164479184042408258540000016713907814544762549_" points="2705.505,1311.814 3412.474,1311.814 
			2687.117,2335.519 2687.117,2490.812 3804.783,2490.812 3804.783,2235.395 3063.077,2235.395 3804.783,1185.137 
			3804.783,1058.446 2705.505,1058.446 		"/>
	</defs>
	<clipPath id="SVGID_00000026134136045046071730000008748154958028132496_">
		<use xlink:href="#SVGID_00000164479184042408258540000016713907814544762549_"  style="overflow:visible;"/>
	</clipPath>
	
		<linearGradient id="SVGID_00000101077496129208579120000000047673171234204854_" gradientUnits="userSpaceOnUse" x1="3520.719" y1="2908.1096" x2="3109.845" y2="1213.1635">
		<stop  offset="0" style="stop-color:#FFFB90"/>
		<stop  offset="0.13" style="stop-color:#FBEC7A"/>
		<stop  offset="0.24" style="stop-color:#F8DC65"/>
		<stop  offset="0.33" style="stop-color:#C8A443"/>
		<stop  offset="0.49" style="stop-color:#996C22"/>
		<stop  offset="0.62" style="stop-color:#CAAA4D"/>
		<stop  offset="0.69" style="stop-color:#FBE878"/>
		<stop  offset="0.73" style="stop-color:#FDF491"/>
		<stop  offset="0.77" style="stop-color:#FFFFAA"/>
		<stop  offset="0.8" style="stop-color:#FDF491"/>
		<stop  offset="0.83" style="stop-color:#FBE878"/>
		<stop  offset="0.92" style="stop-color:#D0A549"/>
		<stop  offset="1" style="stop-color:#A4631B"/>
	</linearGradient>
	
		<rect x="2687.117" y="1058.446" style="clip-path:url(#SVGID_00000026134136045046071730000008748154958028132496_);fill:url(#SVGID_00000101077496129208579120000000047673171234204854_);" width="1117.666" height="1432.366"/>
</g>
<g>
	<defs>
		<path id="SVGID_00000127723261811257706370000010184889469195425967_" d="M3108.826,1058.446c-234.972,0-467.905,0-700.842,0
			v253.368h431.135v567.362c0,216.929-114.423,386.873-359.618,386.873c-243.147,0-361.653-124.986-361.653-370.525h-265.624
			c0,405.259,261.539,623.893,627.277,623.893c394.354,0,629.325-269.714,629.325-640.241V1058.446z"/>
	</defs>
	<clipPath id="SVGID_00000062180439620310073100000000740869514694571953_">
		<use xlink:href="#SVGID_00000127723261811257706370000010184889469195425967_"  style="overflow:visible;"/>
	</clipPath>
	
		<linearGradient id="SVGID_00000056398305599872960620000010723681476361055646_" gradientUnits="userSpaceOnUse" x1="2750.2219" y1="2911.2388" x2="2315.4939" y2="1102.1769">
		<stop  offset="0" style="stop-color:#FFFB90"/>
		<stop  offset="0.13" style="stop-color:#FBEC7A"/>
		<stop  offset="0.24" style="stop-color:#F8DC65"/>
		<stop  offset="0.33" style="stop-color:#C8A443"/>
		<stop  offset="0.49" style="stop-color:#996C22"/>
		<stop  offset="0.62" style="stop-color:#CAAA4D"/>
		<stop  offset="0.69" style="stop-color:#FBE878"/>
		<stop  offset="0.73" style="stop-color:#FDF491"/>
		<stop  offset="0.77" style="stop-color:#FFFFAA"/>
		<stop  offset="0.8" style="stop-color:#FDF491"/>
		<stop  offset="0.83" style="stop-color:#FBE878"/>
		<stop  offset="0.92" style="stop-color:#D0A549"/>
		<stop  offset="1" style="stop-color:#A4631B"/>
	</linearGradient>
	
		<rect x="1852.224" y="1058.446" style="clip-path:url(#SVGID_00000062180439620310073100000000740869514694571953_);fill:url(#SVGID_00000056398305599872960620000010723681476361055646_);" width="1256.602" height="1460.97"/>
</g>
</svg>
